# This file uses centimeters as units for non-parametric coordinates.

mtllib ManaCrystal.mtl
g default
v 0.000000 1.386823 0.000000
v -0.479967 3.420262 0.959838
v -0.959838 3.420262 0.479967
v 0.959838 3.420262 0.479967
v 0.479967 3.420262 0.959838
v -0.959838 4.380197 0.479967
v -0.479967 4.380197 0.959838
v 0.000000 6.419873 0.000000
v 0.479967 4.380197 0.959838
v 0.959838 4.380197 0.479967
v -0.959838 4.380197 -0.479967
v -0.479967 4.380197 -0.959838
v 0.479967 4.380197 -0.959838
v 0.959838 4.380197 -0.479967
v -0.959838 3.420262 -0.479967
v -0.479967 3.420262 -0.959838
v 0.479967 3.420262 -0.959838
v 0.959838 3.420262 -0.479967
vt 0.437494 0.875000
vt 0.375000 0.937506
vt 0.375000 0.812494
vt 0.500000 0.000000
vt 0.437494 0.062494
vt 0.625000 0.937506
vt 0.562506 0.875000
vt 0.625000 0.812494
vt 0.687494 0.062494
vt 0.375000 0.312494
vt 0.375000 0.437506
vt 0.437494 0.187506
vt 0.562506 0.187506
vt 0.625000 0.312494
vt 0.375000 0.562494
vt 0.375000 0.687506
vt 0.500000 0.375000
vt 0.625000 0.562494
vt 0.625000 0.687506
vt 0.437494 0.687506
vt 0.562506 0.687506
vt 0.562506 0.062494
vt 0.437494 0.562494
vt 0.562506 0.562494
vt 0.812506 0.062494
vt 0.812506 0.187506
vt 0.187494 0.062494
vt 0.312506 0.062494
vt 0.312506 0.187506
vt 0.187494 0.187506
vt 0.687494 0.187506
vt 0.625000 0.437506
vn -0.904317 -0.426862 0.000000
vn -0.904317 -0.426862 0.000000
vn -0.904317 -0.426862 0.000000
vn 0.000000 -0.426862 0.904317
vn 0.000000 -0.426862 0.904317
vn 0.000000 -0.426862 0.904317
vn -0.707107 0.000000 0.707107
vn -0.707107 0.000000 0.707107
vn -0.707107 0.000000 0.707107
vn -0.707107 0.000000 0.707107
vn 0.904317 -0.426862 0.000000
vn 0.904317 -0.426862 0.000000
vn 0.904317 -0.426862 0.000000
vn 0.707107 0.000000 0.707107
vn 0.707107 0.000000 0.707107
vn 0.707107 0.000000 0.707107
vn 0.707107 0.000000 0.707107
vn -0.904820 0.425794 0.000000
vn -0.904820 0.425794 0.000000
vn -0.904820 0.425794 0.000000
vn 0.000000 0.425794 0.904820
vn 0.000000 0.425794 0.904820
vn 0.000000 0.425794 0.904820
vn 0.904820 0.425794 0.000000
vn 0.904820 0.425794 0.000000
vn 0.904820 0.425794 0.000000
vn -0.707107 0.000000 -0.707107
vn -0.707107 0.000000 -0.707107
vn -0.707107 0.000000 -0.707107
vn -0.707107 0.000000 -0.707107
vn 0.000000 0.425794 -0.904820
vn 0.000000 0.425794 -0.904820
vn 0.000000 0.425794 -0.904820
vn 0.707107 0.000000 -0.707107
vn 0.707107 0.000000 -0.707107
vn 0.707107 0.000000 -0.707107
vn 0.707107 0.000000 -0.707107
vn 0.000000 -0.426862 -0.904317
vn 0.000000 -0.426862 -0.904317
vn 0.000000 -0.426862 -0.904317
vn 0.000000 0.000000 1.000000
vn 0.000000 0.000000 1.000000
vn 0.000000 0.000000 1.000000
vn 0.000000 0.000000 1.000000
vn 0.000000 0.000000 -1.000000
vn 0.000000 0.000000 -1.000000
vn 0.000000 0.000000 -1.000000
vn 0.000000 0.000000 -1.000000
vn 1.000000 0.000000 0.000000
vn 1.000000 0.000000 0.000000
vn 1.000000 0.000000 0.000000
vn 1.000000 0.000000 0.000000
vn -1.000000 0.000000 0.000000
vn -1.000000 0.000000 0.000000
vn -1.000000 0.000000 0.000000
vn -1.000000 0.000000 0.000000
vn -0.632284 -0.447698 0.632284
vn -0.632284 -0.447698 0.632284
vn -0.632284 -0.447698 0.632284
vn 0.632284 -0.447698 0.632284
vn 0.632284 -0.447698 0.632284
vn 0.632284 -0.447698 0.632284
vn -0.632671 0.446602 0.632671
vn -0.632671 0.446602 0.632671
vn -0.632671 0.446602 0.632671
vn 0.632671 0.446602 0.632672
vn 0.632671 0.446602 0.632671
vn 0.632671 0.446602 0.632671
vn -0.632672 0.446602 -0.632671
vn -0.632672 0.446602 -0.632671
vn -0.632672 0.446602 -0.632671
vn 0.632672 0.446602 -0.632671
vn 0.632672 0.446602 -0.632671
vn 0.632672 0.446602 -0.632671
vn -0.632284 -0.447698 -0.632284
vn -0.632284 -0.447698 -0.632284
vn -0.632284 -0.447698 -0.632284
vn 0.632284 -0.447698 -0.632284
vn 0.632284 -0.447698 -0.632284
vn 0.632284 -0.447698 -0.632284
s off
g pCube1
usemtl initialShadingGroup
f 1/1/1 3/2/2 15/3/3
f 2/5/4 1/4/5 5/22/6
f 3/28/7 2/5/8 7/12/9 6/29/10
f 4/6/11 1/7/12 18/8/13
f 5/22/14 4/9/15 10/31/16 9/13/17
f 6/10/18 8/17/19 11/11/20
f 8/17/21 7/12/22 9/13/23
f 8/17/24 10/14/25 14/32/26
f 11/15/27 12/23/28 16/20/29 15/16/30
f 12/23/31 8/17/32 13/24/33
f 13/24/34 14/18/35 18/19/36 17/21/37
f 1/1/38 16/20/39 17/21/40
f 2/5/41 5/22/42 9/13/43 7/12/44
f 12/23/45 13/24/46 17/21/47 16/20/48
f 4/9/49 18/25/50 14/26/51 10/31/52
f 15/27/53 3/28/54 6/29/55 11/30/56
f 1/4/57 2/5/58 3/28/59
f 4/9/60 5/22/61 1/4/62
f 6/29/63 7/12/64 8/17/65
f 8/17/66 9/13/67 10/31/68
f 11/11/69 8/17/70 12/23/71
f 13/24/72 8/17/73 14/32/74
f 15/16/75 16/20/76 1/1/77
f 1/7/78 17/21/79 18/19/80
